<svg viewBox="0 0 197.93 230.17" xmlns="http://www.w3.org/2000/svg"><defs><style>.a{fill:#fff;}.b{fill:#ffd200;}.c{fill:#e31937;}</style></defs><path d="m197.93,0H0v182.7c0,.21-.36,27.88,31.89,31.47l.14.02h.14c.51,0,50.83-.11,66.42,15.48,0,0,.28.34.33.51l.41-.51c15.59-15.59,65.92-15.48,66.42-15.48h.14s.14-.01.14-.01c32.25-3.58,31.89-31.25,31.88-31.53V0Z" class="b"></path><path d="m4.91,182.91c0-.07,0-.12,0-.15V5.01s186.13,0,186.13,0L15.32,203.18c-10.04-7.39-10.41-18.7-10.41-20.27Z" class="a"></path><path d="m165.6,209.27c-3.51,0-47.62.15-66.63,14.27-19.01-14.11-63.13-14.28-66.63-14.27-5.15-.58-9.33-1.84-12.73-3.51L193.02,10.2v172.5s0,.09,0,.16c0,2.26-.72,23.39-27.42,26.41Z" class="c"></path><path d="m11.54,68.28c16.3,4.87,22.78-10.37,22.78-10.37l15.88-35.36c6.78-14.19,15.67-13.13,15.67-13.13v19.48s-6.36-.44-9.53,6.99l-12.92,29.86s-12.7,31.34-31.97,19.06l.08-16.52Z" class="b"></path><path d="m129.77,37.47s-1.23-4.1,4.1-12.08l11.06-16.8h-25.6s15.36,14.34-13.11,24.99v-4.68c3.39-2.78,5.6-3.85,5.6-3.85V8.11c-24.31,0-36.05,30.86-36.05,30.86l-25.95,56.26c-8.19,15.02-20.21,13.93-20.21,13.93-10.92,0-18.19-6.55-18.19-6.55l-.04,42.4c29.91-11.06,47.73-39.74,47.73-39.74l27.86-51.21c1.48-2.91,2.99-5.55,4.51-7.94v62.43l22.33-25.51s-10.65-13.61.21-32.04c0,0,6.76.97,14.75,16.13l12.5-14.08s-11.47-6.35-11.47-15.57Z" class="b"></path><path d="m121.85,119.97c1.12-2.28,3.28-4.35,6.49-6.21l4.79-2.77c2.14-1.25,3.65-2.31,4.51-3.2,1.36-1.39,2.04-2.98,2.04-4.77,0-2.09-.62-3.75-1.87-4.98-1.24-1.23-2.9-1.84-4.97-1.84-3.07,0-5.19,1.17-6.37,3.52-.63,1.26-.98,3-1.04,5.23h-4.62c.05-3.11.62-5.65,1.72-7.62,1.95-3.46,5.38-5.2,10.3-5.2,4.09,0,7.08,1.11,8.96,3.32,1.89,2.21,2.83,4.68,2.83,7.39,0,2.86-1,5.31-3,7.34-1.16,1.18-3.24,2.61-6.24,4.29l-3.41,1.9c-1.62.9-2.91,1.76-3.85,2.57-1.69,1.45-2.75,3.05-3.19,4.82h19.5v4.25h-24.5c.17-3.08.81-5.76,1.93-8.04Z" class="b"></path><polygon points="158.85 91.32 162.64 91.32 151.01 128.01 147.22 128.01 158.85 91.32" class="b"></polygon><path d="m164.51,125.47c-1.91-2.32-2.86-5.14-2.86-8.46h4.62c.2,2.32.63,4,1.3,5.05,1.17,1.88,3.28,2.83,6.34,2.83,2.37,0,4.27-.63,5.71-1.9,1.44-1.27,2.15-2.9,2.15-4.9,0-2.46-.75-4.19-2.26-5.17s-3.6-1.47-6.27-1.47c-.3,0-.6,0-.91.02-.31.01-.62.03-.93.05v-3.94c.46.03.86.04,1.17.05.32,0,.66.01,1.03.01,1.68,0,3.06-.26,4.14-.8,1.9-.93,2.85-2.58,2.85-4.97,0-1.77-.63-3.14-1.89-4.1-1.26-.96-2.73-1.44-4.4-1.44-2.99,0-5.05,1-6.2,3-.63,1.1-.99,2.66-1.07,4.69h-4.5c0-2.66.53-4.91,1.6-6.77,1.83-3.32,5.06-4.98,9.68-4.98,3.65,0,6.47.81,8.47,2.42,2,1.62,3,3.96,3,7.02,0,2.19-.59,3.96-1.78,5.32-.73.85-1.69,1.51-2.86,1.99,1.89.52,3.36,1.51,4.42,2.98,1.06,1.47,1.59,3.27,1.59,5.4,0,3.41-1.12,6.19-3.37,8.33-2.25,2.15-5.44,3.22-9.56,3.22s-7.3-1.16-9.2-3.48Z" class="b"></path><path d="m83.42,162.95v-3.44c3.23-.31,5.49-.84,6.77-1.58,1.28-.74,2.23-2.48,2.86-5.23h3.56v35.56h-4.81v-25.31h-8.37Z" class="b"></path><path d="m102.57,179.58c0,2.76.9,5.05,2.71,6.88,1.81,1.83,4.46,2.74,7.95,2.74,5.2,0,8.88-2.8,11.06-8.41,1.31-3.37,1.97-7.23,1.97-11.6,0-3.87-.55-7.08-1.64-9.66-1.98-4.68-5.57-7.02-10.77-7.02-3.86,0-6.77,1.23-8.75,3.68-1.98,2.46-2.97,5.3-2.97,8.54s1,6.12,3,8.26c2,2.14,4.72,3.21,8.15,3.21,1.69,0,3.27-.32,4.74-.96,1.47-.64,2.7-1.75,3.7-3.33-.63,5.46-1.7,9.08-3.21,10.86-1.51,1.78-3.34,2.68-5.48,2.68-1.15,0-2.18-.25-3.09-.75-1.78-.95-2.73-2.65-2.87-5.13h-4.5Zm11.33-7.31c-2.47,0-4.26-.69-5.39-2.05s-1.69-3.22-1.69-5.54c0-2.46.64-4.42,1.92-5.89,1.28-1.47,3.02-2.2,5.2-2.2,2.04,0,3.71.64,5.03,1.93,1.32,1.29,1.97,3.24,1.97,5.86,0,2.92-.73,4.97-2.2,6.14-1.46,1.17-3.08,1.76-4.85,1.76" class="b"></path><path d="m149.73,188.26v-8.75h5.25v-3.94h-5.25v-23.12h-3.8l-16.39,22.65v4.41h15.69v8.75h4.5Zm-16.04-12.69l11.48-16.19v16.19h-11.48" class="b"></path><path d="m178.66,188.26v-8.75h5.25v-3.94h-5.25v-23.12h-3.8l-16.39,22.65v4.41h15.69v8.75h4.5Zm-16.04-12.69l11.48-16.19v16.19h-11.48" class="b"></path></svg>